<?xml version="1.0" encoding="UTF-8"?>
<svg id="Layer_1" xmlns="http://www.w3.org/2000/svg" version="1.1" viewBox="0 0 227.9 182.85">
  <!-- Generator: Adobe Illustrator 30.2.1, SVG Export Plug-In . SVG Version: 2.1.1 Build 1)  -->
  <defs>
    <style>
      .st0 {
        fill: #231f20;
      }

      .st1 {
        fill: #fff;
      }
    </style>
  </defs>
  <path class="st1" d="M214.356,123.781c6.985-12.549,11.69-26.541,13.544-41.419-6.504-9.542-14.176-18.222-22.809-25.841-2.054-20.644-9.573-39.679-21.093-55.636-.71-.984-2.09-1.178-3.046-.43-10.01,7.821-18.688,17.267-25.641,27.939-13.057-4.104-26.95-6.32-41.362-6.32s-28.314,2.218-41.375,6.324c-6.953-10.674-15.633-20.122-25.644-27.944-.956-.747-2.336-.553-3.046.43-11.523,15.961-19.043,35.002-21.094,55.652-8.625,7.614-16.292,16.289-22.791,25.824,1.855,14.878,6.559,28.87,13.544,41.419,8.584-35.132,35.128-63.218,69.348-73.985,5.116-1.61,10.502,1.568,11.554,6.827l6.224,31.12c.468,2.339-1.052,4.688-3.367,5.262-30.012,7.446-52.257,34.562-52.257,66.877h0c19.194,14.42,43.049,22.968,68.904,22.968s49.71-8.548,68.904-22.967c0-32.315-22.245-59.432-52.257-66.878-2.315-.574-3.835-2.923-3.367-5.262l6.224-31.12c1.052-5.26,6.437-8.437,11.554-6.827,34.221,10.767,60.764,38.853,69.348,73.985Z"/>
  <path class="st0" d="M129.552,118.933c1.279.3,1.973,1.705,1.444,2.914-3.688,8.44-9.014,15.992-15.571,22.251-.826.789-2.125.789-2.951,0-6.558-6.259-11.883-13.811-15.571-22.251-.528-1.209.166-2.614,1.444-2.914,5.012-1.177,10.234-1.803,15.603-1.803s10.591.626,15.602,1.803Z"/>
  <circle class="st1" cx="71.55" cy="81.09" r="8.48"/>
  <circle class="st1" cx="156.35" cy="81.09" r="8.48"/>
</svg>