<?xml version="1.0" encoding="UTF-8"?>
<svg id="Layer_1" xmlns="http://www.w3.org/2000/svg" version="1.1" viewBox="0 0 600 600">
  <!-- Generator: Adobe Illustrator 30.2.1, SVG Export Plug-In . SVG Version: 2.1.1 Build 1)  -->
  <defs>
    <style>
      .st0 {
        fill: #fff;
      }
    </style>
  </defs>
  <path class="st0" d="M394.722,330.524c6.59-11.838,11.028-25.038,12.778-39.074-6.136-9.002-13.374-17.191-21.518-24.378-1.938-19.475-9.032-37.433-19.899-52.487-.67-.928-1.972-1.111-2.874-.406-9.443,7.378-17.63,16.29-24.189,26.358-12.318-3.871-25.424-5.962-39.02-5.962s-26.712,2.092-39.033,5.966c-6.56-10.07-14.748-18.983-24.192-26.362-.902-.705-2.203-.522-2.873.406-10.87,15.058-17.965,33.021-19.9,52.502-8.137,7.183-15.369,15.367-21.501,24.363,1.75,14.036,6.188,27.236,12.778,39.074,8.098-33.143,33.139-59.639,65.423-69.797,4.827-1.519,9.907,1.479,10.9,6.441l5.872,29.359c.441,2.206-.993,4.422-3.177,4.964-28.313,7.024-49.299,32.606-49.299,63.091h0c18.107,13.603,40.612,21.668,65.003,21.668s46.896-8.064,65.003-21.667c0-30.486-20.986-56.068-49.299-63.093-2.184-.542-3.618-2.758-3.176-4.964l5.872-29.359c.992-4.962,6.073-7.96,10.9-6.441,32.284,10.158,57.325,36.654,65.423,69.797ZM314.719,325.951c1.206.283,1.861,1.609,1.362,2.749-3.479,7.962-8.503,15.086-14.69,20.992-.78.744-2.004.744-2.784,0-6.186-5.905-11.211-13.029-14.69-20.992-.498-1.14.156-2.466,1.362-2.749,4.728-1.111,9.655-1.701,14.719-1.701s9.991.59,14.719,1.701Z"/>
  <circle class="st0" cx="260" cy="290.25" r="8"/>
  <circle class="st0" cx="340" cy="290.25" r="8"/>
  <path class="st0" d="M475.859,192.694l-48.52,28.013c1.762,2.824,3.435,5.709,5.01,8.654l47.645-27.508c-.462-1.08-.94-2.151-1.416-3.224l82.018-47.353c-.497-.868-.999-1.733-1.504-2.596l-81.754,47.201c-.489-1.065-.975-2.131-1.478-3.188Z"/>
  <path class="st0" d="M465.655,173.464l-47.308,34.371c2.048,2.627,4.013,5.322,5.887,8.084l46.348-33.674c-.555-1.038-1.126-2.065-1.695-3.095l74.711-54.281c-.585-.812-1.173-1.621-1.765-2.426l-74.424,54.072c-.58-1.02-1.159-2.042-1.753-3.052Z"/>
  <path class="st0" d="M424.14,120.63l-40.059,55.137c2.762,1.873,5.457,3.838,8.084,5.887l39.102-53.82c-.816-.859-1.645-1.704-2.473-2.551l48.762-67.115c-.805-.592-1.614-1.18-2.426-1.765l-48.474,66.719c-.835-.834-1.669-1.67-2.516-2.492Z"/>
  <path class="st0" d="M439.791,137.274l-43.197,47.976c2.551,2.149,5.031,4.379,7.432,6.691l42.196-46.863c-.733-.927-1.481-1.842-2.227-2.758l57.858-64.258c-.74-.673-1.484-1.34-2.231-2.006l-57.556,63.923c-.755-.905-1.508-1.811-2.275-2.705Z"/>
  <path class="st0" d="M453.633,154.94l-45.574,41.035c2.312,2.401,4.542,4.881,6.691,7.432l44.577-40.137c-.646-.987-1.307-1.962-1.966-2.939l66.583-59.952c-.666-.746-1.333-1.491-2.006-2.231l-66.285,59.684c-.669-.967-1.337-1.935-2.019-2.891Z"/>
  <path class="st0" d="M484.252,212.493l-49.304,21.952c1.455,2.99,2.81,6.038,4.068,9.135l48.559-21.62c-.366-1.114-.749-2.22-1.13-3.328l88.292-39.31c-.403-.916-.808-1.83-1.219-2.741l-88.07,39.211c-.394-1.102-.786-2.204-1.195-3.299Z"/>
  <path class="st0" d="M304,150.054V55.85c-.831-.183-1.666-.354-2.5-.528V.01c-.5-.002-.999-.01-1.5-.01s-1,.007-1.5.01v54.704c-.833-.163-1.664-.33-2.5-.486v95.826c1.329-.035,2.662-.054,4-.054s2.671.019,4,.054Z"/>
  <path class="st0" d="M498.672,274.091l-50.092,5.265c.452,3.283.801,6.599,1.037,9.946l49.883-5.243c-.073-1.167-.165-2.33-.255-3.493l99.283-10.435c-.098-.996-.204-1.99-.312-2.984l-99.22,10.428c-.104-1.163-.205-2.327-.324-3.485Z"/>
  <path class="st0" d="M495.643,253.303l-50.018,10.632c.795,3.222,1.494,6.482,2.077,9.782l49.6-10.543c-.171-1.158-.36-2.309-.546-3.462l97.053-20.629c-.202-.98-.408-1.959-.62-2.935l-96.931,20.603c-.2-1.151-.399-2.302-.615-3.447Z"/>
  <path class="st0" d="M490.842,232.734l-49.774,16.173c1.132,3.123,2.162,6.295,3.088,9.511l49.181-15.98c-.269-1.14-.555-2.273-.84-3.408l93.351-30.332c-.304-.953-.613-1.904-.926-2.853l-93.173,30.274c-.298-1.13-.594-2.262-.907-3.386Z"/>
  <path class="st0" d="M599.981,297h-150.019c.02.998.038,1.997.038,3s-.018,2.002-.038,3h150.019c.012-.999.019-1.998.019-3s-.007-2.001-.019-3Z"/>
  <path class="st0" d="M269.783,50.774l10.564,100.508c2.632-.344,5.284-.625,7.957-.831l-10.396-98.907c-.845-.094-1.694-.176-2.541-.262l-5.235-49.81c-.996.098-1.99.204-2.984.312l5.172,49.21c-.845-.075-1.689-.153-2.537-.22Z"/>
  <path class="st0" d="M242.794,50.106l22.113,104.033c2.584-.619,5.192-1.175,7.826-1.658l-21.782-102.474c-.317-.001-.634-.006-.952-.006-.535,0-1.069.009-1.603.012l-9.314-43.821c-.98.202-1.959.408-2.935.62l9.191,43.239c-.849.016-1.697.031-2.544.055Z"/>
  <path class="st0" d="M406.699,105.193l-36.06,62.458c2.945,1.575,5.831,3.248,8.654,5.01l35.181-60.936c-.893-.781-1.799-1.549-2.703-2.318l39.548-68.499c-.863-.505-1.727-1.007-2.596-1.504l-39.285,68.043c-.91-.755-1.818-1.513-2.74-2.255Z"/>
  <path class="st0" d="M160.558,66.479l60.998,105.652c2.269-1.395,4.574-2.737,6.921-4.013l-60.287-104.42c-.801.277-1.598.566-2.396.851l-14.517-25.144c-.868.497-1.733.999-2.596,1.504l14.251,24.683c-.792.294-1.586.585-2.374.887Z"/>
  <path class="st0" d="M187.789,57.804l47.556,106.813c2.401-1.149,4.839-2.231,7.309-3.253l-46.948-105.447c-.83.184-1.656.379-2.483.57l-13.901-31.223c-.916.403-1.83.808-2.741,1.219l13.674,30.712c-.822.201-1.646.399-2.465.609Z"/>
  <path class="st0" d="M215.339,52.385l34.511,106.215c2.506-.889,5.043-1.713,7.609-2.47l-34.029-104.73c-.847.09-1.691.19-2.535.288l-12.196-37.536c-.953.304-1.904.613-2.853.927l12.015,36.979c-.841.108-1.684.212-2.522.328Z"/>
  <path class="st0" d="M388.345,91.741l-30.998,69.622c2.469,1.023,4.908,2.105,7.309,3.253l30.391-68.259c-.691-.493-1.39-.976-2.086-1.462l30.459-68.413c-.911-.412-1.825-.816-2.741-1.219l-30.231,67.901c-.7-.476-1.398-.955-2.103-1.424Z"/>
  <path class="st0" d="M350.15,158.6l24.487-75.363c-.736-.424-1.48-.838-2.221-1.255l21.738-66.904c-.949-.313-1.9-.622-2.854-.927l-21.558,66.349c-.744-.406-1.486-.815-2.234-1.214l-24.968,76.843c2.566.757,5.103,1.581,7.609,2.47Z"/>
  <path class="st0" d="M328.96,62.73c-.808-.269-1.62-.527-2.431-.788l6.323-60.159c-.993-.108-1.987-.213-2.984-.312l-6.259,59.551c-.811-.25-1.621-.503-2.436-.745l-9.478,90.173c2.673.206,5.325.486,7.957.831l9.307-88.552Z"/>
  <path class="st0" d="M335.093,154.138l17.471-82.196c-.776-.349-1.557-.688-2.337-1.029l13.625-64.102c-.977-.212-1.955-.418-2.935-.62l-13.5,63.511c-.781-.331-1.561-.665-2.346-.988l-17.805,83.765c2.634.484,5.242,1.039,7.826,1.658Z"/>
  <path class="st0" d="M448.846,318.661l148.817,15.641c.271-1.978.521-3.962.746-5.954l-148.948-15.655c-.168,2-.369,3.991-.615,5.968Z"/>
  <path class="st0" d="M446.099,334.121l145.36,30.897c.519-1.93,1.015-3.869,1.488-5.818l-145.615-30.952c-.375,1.97-.781,3.93-1.233,5.872Z"/>
  <path class="st0" d="M441.732,349.206l139.744,45.405c.758-1.853,1.494-3.717,2.208-5.591l-140.099-45.521c-.58,1.919-1.198,3.821-1.853,5.707Z"/>
  <path class="st0" d="M570.827,417.296l-132.568-59.023c-.779,1.846-1.602,3.669-2.452,5.476l132.127,58.827c.246-.437.488-.878.732-1.316l4.852,2.16c.412-.911.816-1.825,1.219-2.741l-4.624-2.059c.238-.441.479-.881.715-1.324Z"/>
  <path class="st0" d="M554.681,443.576l-123.287-71.18c-.968,1.753-1.964,3.488-2.999,5.197l122.759,70.875c.299-.404.593-.812.89-1.219l7.048,4.069c.505-.863,1.007-1.727,1.504-2.596l-6.789-3.919c.291-.409.585-.817.874-1.228Z"/>
  <path class="st0" d="M535.612,467.474l-112.518-81.749c-1.145,1.642-2.321,3.259-3.53,4.852l111.945,81.333c.346-.366.682-.741,1.026-1.109l9.298,6.755c.592-.805,1.18-1.614,1.765-2.426l-9.011-6.547c.34-.372.688-.735,1.026-1.109Z"/>
  <path class="st0" d="M514.024,488.671l-100.566-90.55c-1.309,1.513-2.655,2.993-4.023,4.452l99.974,90.017c.388-.322.767-.655,1.153-.98l11.375,10.242c.673-.74,1.341-1.484,2.006-2.231l-11.074-9.971c.383-.329.773-.649,1.153-.98Z"/>
  <path class="st0" d="M490.345,506.916l-87.772-97.48c-1.459,1.368-2.939,2.714-4.452,4.023l87.165,96.806c.425-.274.847-.553,1.271-.83l13.065,14.51c.746-.666,1.491-1.333,2.231-2.006l-12.766-14.178c.419-.281.841-.56,1.258-.844Z"/>
  <path class="st0" d="M465.018,522.024l-74.441-102.459c-1.593,1.208-3.211,2.384-4.852,3.53l73.863,101.665c.456-.223.909-.451,1.363-.676l14.178,19.515c.812-.585,1.62-1.172,2.426-1.765l-13.89-19.118c.451-.23.903-.458,1.352-.691Z"/>
  <path class="st0" d="M146.367,445.06l45.574-41.035c-2.312-2.401-4.542-4.881-6.691-7.432l-44.577,40.137c.646.987,1.307,1.963,1.966,2.94l-66.583,59.952c.666.746,1.333,1.491,2.006,2.231l66.285-59.684c.669.967,1.337,1.935,2.019,2.892Z"/>
  <path class="st0" d="M211.656,508.26l30.998-69.622c-2.47-1.023-4.908-2.105-7.309-3.253l-30.391,68.259c.691.493,1.389.976,2.086,1.462l-30.459,68.413c.911.412,1.826.817,2.741,1.219l30.231-67.901c.7.476,1.398.954,2.103,1.424Z"/>
  <path class="st0" d="M134.345,426.536l47.308-34.371c-2.048-2.627-4.013-5.321-5.887-8.084l-46.348,33.674c.555,1.038,1.126,2.066,1.695,3.095l-74.711,54.281c.584.812,1.172,1.62,1.765,2.426l74.424-54.072c.58,1.02,1.159,2.042,1.753,3.053Z"/>
  <path class="st0" d="M175.86,479.371l40.059-55.137c-2.762-1.873-5.457-3.838-8.084-5.887l-39.102,53.82c.816.859,1.645,1.704,2.473,2.55l-48.762,67.115c.806.593,1.615,1.18,2.426,1.765l48.474-66.719c.835.834,1.669,1.67,2.516,2.492Z"/>
  <path class="st0" d="M193.301,494.807l36.06-62.458c-2.945-1.575-5.831-3.248-8.655-5.01l-35.181,60.936c.893.781,1.799,1.549,2.703,2.318l-39.548,68.499c.863.505,1.728,1.007,2.596,1.504l39.285-68.043c.91.755,1.818,1.513,2.74,2.255Z"/>
  <path class="st0" d="M160.209,462.726l43.197-47.975c-2.551-2.149-5.031-4.379-7.432-6.691l-42.196,46.863c.733.927,1.48,1.842,2.226,2.758l-57.858,64.258c.74.673,1.484,1.341,2.231,2.006l57.556-63.923c.755.905,1.507,1.811,2.275,2.704Z"/>
  <path class="st0" d="M124.141,407.306l48.52-28.013c-1.762-2.824-3.435-5.709-5.01-8.654l-47.645,27.508c.462,1.08.94,2.152,1.416,3.224l-82.018,47.353c.497.868.999,1.733,1.504,2.595l81.754-47.201c.489,1.065.975,2.131,1.478,3.188Z"/>
  <path class="st0" d="M101.328,325.909l50.092-5.265c-.452-3.283-.801-6.599-1.037-9.946l-49.883,5.243c.073,1.167.165,2.33.255,3.493L1.472,329.868c.099.996.204,1.99.312,2.984l99.22-10.428c.104,1.163.205,2.327.324,3.485Z"/>
  <path class="st0" d="M104.357,346.697l50.018-10.632c-.795-3.222-1.494-6.482-2.077-9.782l-49.6,10.543c.171,1.158.36,2.309.546,3.462l-97.053,20.629c.202.98.408,1.959.62,2.935l96.931-20.603c.2,1.151.399,2.302.615,3.447Z"/>
  <path class="st0" d="M109.158,367.266l49.774-16.173c-1.132-3.123-2.162-6.295-3.088-9.512l-49.181,15.98c.269,1.14.555,2.273.839,3.407l-93.351,30.332c.304.953.613,1.905.927,2.854l93.173-30.274c.298,1.13.594,2.261.907,3.385Z"/>
  <path class="st0" d="M115.748,387.508l49.304-21.952c-1.455-2.99-2.81-6.038-4.068-9.135l-48.559,21.62c.366,1.115.749,2.221,1.13,3.328l-88.292,39.31c.403.915.808,1.83,1.219,2.741l88.07-39.211c.394,1.102.786,2.205,1.195,3.299Z"/>
  <path class="st0" d="M150,300c0-1.003.018-2.002.038-3H.019c-.012.999-.019,1.999-.019,3s.007,2.001.019,3h150.019c-.02-.998-.038-1.997-.038-3Z"/>
  <path class="st0" d="M412.212,542.196l-47.556-106.813c-2.401,1.149-4.839,2.231-7.309,3.253l46.948,105.447c.83-.184,1.656-.379,2.483-.57l13.901,31.223c.916-.403,1.83-.808,2.741-1.219l-13.674-30.712c.823-.201,1.646-.399,2.466-.609Z"/>
  <path class="st0" d="M249.851,441.4l-24.487,75.363c.736.424,1.48.838,2.221,1.255l-21.739,66.904c.949.313,1.9.622,2.853.926l21.558-66.35c.744.406,1.486.815,2.234,1.214l24.968-76.843c-2.566-.757-5.102-1.581-7.609-2.47Z"/>
  <path class="st0" d="M296,449.946v94.204c.831.183,1.666.354,2.5.528v55.312c.5.002.999.01,1.5.01s1-.007,1.5-.01v-54.704c.833.163,1.664.33,2.5.486v-95.826c-1.329.035-2.662.054-4,.054s-2.671-.019-4-.054Z"/>
  <path class="st0" d="M384.661,547.615l-34.511-106.215c-2.506.889-5.043,1.713-7.609,2.47l34.029,104.73c.847-.089,1.69-.19,2.535-.288l12.196,37.536c.953-.304,1.904-.613,2.853-.927l-12.015-36.979c.841-.108,1.683-.212,2.522-.328Z"/>
  <path class="st0" d="M439.442,533.521l-60.998-105.652c-2.269,1.395-4.574,2.737-6.921,4.012l60.287,104.42c.801-.277,1.598-.566,2.396-.851l14.517,25.144c.868-.497,1.733-.999,2.595-1.504l-14.251-24.683c.792-.294,1.586-.585,2.374-.887Z"/>
  <path class="st0" d="M264.907,445.862l-17.471,82.196c.776.349,1.557.688,2.337,1.029l-13.625,64.101c.977.212,1.955.418,2.935.62l13.5-63.511c.781.331,1.561.664,2.346.988l17.805-83.765c-2.634-.484-5.242-1.039-7.826-1.658Z"/>
  <path class="st0" d="M271.04,537.27c.808.269,1.62.527,2.431.788l-6.323,60.159c.993.108,1.987.213,2.984.312l6.259-59.551c.811.25,1.621.503,2.435.745l9.478-90.173c-2.673-.206-5.325-.486-7.957-.831l-9.307,88.552Z"/>
  <path class="st0" d="M330.217,549.226l-10.564-100.508c-2.632.344-5.284.625-7.957.831l10.396,98.907c.845.094,1.694.176,2.541.262l5.235,49.81c.996-.098,1.99-.204,2.984-.312l-5.172-49.21c.845.075,1.689.153,2.537.22Z"/>
  <path class="st0" d="M357.206,549.895l-22.113-104.033c-2.584.619-5.192,1.175-7.826,1.658l21.782,102.474c.317.001.634.006.952.006.535,0,1.068-.008,1.603-.012l9.314,43.821c.98-.202,1.959-.408,2.935-.62l-9.191-43.239c.848-.016,1.697-.031,2.544-.055Z"/>
  <path class="st0" d="M151.154,281.339L2.337,265.698c-.271,1.978-.521,3.963-.746,5.955l148.948,15.655c.168-2,.369-3.991.615-5.969Z"/>
  <path class="st0" d="M153.901,265.879L8.541,234.981c-.518,1.93-1.015,3.87-1.488,5.818l145.615,30.951c.376-1.97.781-3.93,1.233-5.872Z"/>
  <path class="st0" d="M158.268,250.794L18.524,205.388c-.758,1.853-1.494,3.717-2.208,5.591l140.099,45.521c.581-1.919,1.198-3.821,1.853-5.707Z"/>
  <path class="st0" d="M29.173,182.704l132.568,59.023c.779-1.846,1.602-3.669,2.452-5.476l-132.127-58.827c-.246.437-.488.877-.732,1.316l-4.852-2.16c-.412.911-.816,1.825-1.219,2.741l4.624,2.059c-.238.441-.479.881-.715,1.324Z"/>
  <path class="st0" d="M45.319,156.424l123.287,71.18c.968-1.753,1.964-3.488,2.999-5.197l-122.759-70.875c-.299.404-.593.812-.89,1.218l-7.048-4.069c-.505.863-1.007,1.728-1.504,2.596l6.789,3.92c-.291.409-.585.817-.874,1.228Z"/>
  <path class="st0" d="M64.388,132.526l112.518,81.749c1.145-1.641,2.321-3.259,3.53-4.852l-111.945-81.333c-.346.365-.682.741-1.026,1.109l-9.298-6.755c-.592.805-1.18,1.614-1.765,2.426l9.011,6.547c-.34.372-.688.735-1.026,1.109Z"/>
  <path class="st0" d="M85.976,111.329l100.566,90.55c1.309-1.513,2.655-2.993,4.023-4.452l-99.974-90.017c-.389.322-.767.655-1.154.98l-11.375-10.242c-.673.74-1.34,1.484-2.006,2.23l11.074,9.971c-.383.329-.773.648-1.154.98Z"/>
  <path class="st0" d="M109.655,93.084l87.772,97.481c1.459-1.368,2.939-2.714,4.451-4.023l-87.165-96.807c-.425.274-.847.554-1.271.83l-13.064-14.51c-.746.666-1.491,1.333-2.231,2.006l12.766,14.178c-.419.281-.841.56-1.258.844Z"/>
  <path class="st0" d="M134.982,77.976l74.441,102.459c1.593-1.208,3.211-2.384,4.852-3.53l-73.863-101.665c-.456.223-.909.451-1.363.676l-14.178-19.515c-.812.585-1.621,1.172-2.426,1.765l13.89,19.118c-.451.23-.903.458-1.352.691Z"/>
</svg>