<?xml version="1.0" encoding="UTF-8"?>
<svg id="Layer_1" xmlns="http://www.w3.org/2000/svg" version="1.1" viewBox="0 0 600 600">
  <defs>
    <style>
      .st0 {
        fill: #fff;
      }
    </style>
  </defs>
  <path class="st0" d="M394.722,330.524c6.59-11.838,11.028-25.038,12.778-39.074-6.136-9.002-13.374-17.191-21.518-24.378-1.938-19.475-9.032-37.433-19.899-52.487-.67-.928-1.972-1.111-2.874-.406-9.443,7.378-17.63,16.29-24.189,26.358-12.318-3.871-25.424-5.962-39.02-5.962s-26.712,2.092-39.033,5.966c-6.56-10.07-14.748-18.983-24.192-26.362-.902-.705-2.203-.522-2.873.406-10.87,15.058-17.965,33.021-19.9,52.502-8.137,7.183-15.369,15.367-21.501,24.363,1.75,14.036,6.188,27.236,12.778,39.074,8.098-33.143,33.139-59.639,65.423-69.797,4.827-1.519,9.907,1.479,10.9,6.441l5.872,29.359c.441,2.206-.993,4.422-3.177,4.964-28.313,7.024-49.299,32.606-49.299,63.091h0c18.107,13.603,40.612,21.668,65.003,21.668s46.896-8.064,65.003-21.667c0-30.486-20.986-56.068-49.299-63.093-2.184-.542-3.618-2.758-3.176-4.964l5.872-29.359c.992-4.962,6.073-7.96,10.9-6.441,32.284,10.158,57.325,36.654,65.423,69.797ZM314.719,325.951c1.206.283,1.861,1.609,1.362,2.749-3.479,7.962-8.503,15.086-14.69,20.992-.78.744-2.004.744-2.784,0-6.186-5.905-11.211-13.029-14.69-20.992-.498-1.14.156-2.466,1.362-2.749,4.728-1.111,9.655-1.701,14.719-1.701s9.991.59,14.719,1.701Z"/>
</svg>
