<svg width="63" height="108" viewBox="0 0 63 108" fill="none" xmlns="http://www.w3.org/2000/svg">
<path d="M62.8979 0H0V108H62.8979V0Z" fill="#E95420"/>
<path d="M7.93371 71.4528C8.46966 67.895 11.7877 65.4437 15.3431 65.9772C18.9033 66.511 21.3543 69.8288 20.8187 73.3866C20.2873 76.9446 16.9695 79.3954 13.4093 78.8619C9.85368 78.3284 7.40235 75.0106 7.93371 71.4528Z" fill="white"/>
<path d="M35.1385 56.7691C35.8934 53.2507 39.3559 51.0119 42.874 51.7643C46.3921 52.5193 48.6333 55.9818 47.8787 59.4998C47.124 63.0182 43.6616 65.2595 40.1432 64.5046C36.6251 63.7497 34.3836 60.2877 35.1385 56.7691Z" fill="white"/>
<path d="M29.0713 89.1862C24.379 88.1799 20.4554 85.1829 18.2511 80.9333C16.5131 81.7231 14.5605 81.9656 12.6826 81.6183C15.3481 88.1702 21.0051 92.9281 27.9484 94.4145C29.4769 94.7433 31.0286 94.9018 32.5757 94.8921C31.378 93.3193 30.7119 91.4231 30.6697 89.4448C30.1338 89.3865 29.5981 89.2977 29.0713 89.1862Z" fill="white"/>
<path d="M33.6707 87.8555C34.4256 84.3399 37.8881 82.0986 41.4062 82.8508C44.9243 83.6057 47.1661 87.0682 46.4112 90.5866C45.6563 94.1047 42.1938 96.346 38.6754 95.591C35.1573 94.8385 32.9158 91.3739 33.6707 87.8555Z" fill="white"/>
<path d="M49.1084 86.8282C51.1309 84.2767 52.5568 81.2573 53.2466 78.0462C54.4441 72.4526 53.3255 66.5831 50.1759 61.8206C49.4256 63.5888 48.1488 65.0849 46.5131 66.1127C48.27 69.4256 48.806 73.2494 48.0181 76.926C47.6315 78.7269 46.9511 80.4233 45.9912 81.975C47.5197 83.2329 48.6053 84.9245 49.1084 86.8282Z" fill="white"/>
<path d="M13.875 63.0763C14.0427 63.0674 14.206 63.0626 14.3737 63.0626C15.0309 63.0626 15.6878 63.1322 16.3404 63.2721C17.398 63.5008 18.3999 63.9039 19.3131 64.4698C22.2445 60.2524 26.9789 57.7201 32.1046 57.6291C32.1327 57.1377 32.198 56.646 32.3003 56.1611C32.5987 54.7654 33.2092 53.4608 34.0807 52.3446C25.8884 51.6972 17.9291 55.9235 13.875 63.0763Z" fill="white"/>
</svg>
